<?xml version="1.0" encoding="utf-8"?>
<!-- Generator: Adobe Illustrator 22.0.1, SVG Export Plug-In . SVG Version: 6.00 Build 0)  -->
<svg version="1.1" id="레이어_1" xmlns="http://www.w3.org/2000/svg" xmlns:xlink="http://www.w3.org/1999/xlink" x="0px"
	 y="0px" viewBox="0 0 21 21" style="enable-background:new 0 0 21 21;" xml:space="preserve">
<style type="text/css">
	.st0{fill:#D4CEC2;}
</style>
<path class="st0" d="M14.4,0H6.6C2.9,0,0,2.9,0,6.6v7.9C0,18.1,2.9,21,6.6,21h7.9c3.6,0,6.6-2.9,6.6-6.6V6.6C21,2.9,18.1,0,14.4,0z
	 M19,14.4C19,17,17,19,14.4,19H6.6C4,19,2,17,2,14.4V6.6C2,4,4,2,6.6,2h7.9C17,2,19,4,19,6.6V14.4z"/>
<path class="st0" d="M10.5,5.3c-2.9,0-5.2,2.4-5.2,5.2c0,2.9,2.4,5.2,5.2,5.2c2.9,0,5.2-2.4,5.2-5.2C15.8,7.6,13.4,5.3,10.5,5.3z
	 M10.5,13.8c-1.8,0-3.3-1.5-3.3-3.3c0-1.8,1.5-3.3,3.3-3.3c1.8,0,3.3,1.5,3.3,3.3C13.8,12.3,12.3,13.8,10.5,13.8z"/>
<path class="st0" d="M16.1,5.6c0.4,0,0.7-0.3,0.7-0.7c0-0.4-0.3-0.7-0.7-0.7s-0.7,0.3-0.7,0.7C15.4,5.2,15.8,5.6,16.1,5.6z"/>
</svg>
