<?xml version="1.0" encoding="utf-8"?>
<!-- Generator: Adobe Illustrator 22.0.1, SVG Export Plug-In . SVG Version: 6.00 Build 0)  -->
<svg version="1.1" id="레이어_1" xmlns="http://www.w3.org/2000/svg" xmlns:xlink="http://www.w3.org/1999/xlink" x="0px"
	 y="0px" viewBox="0 0 27 27" style="enable-background:new 0 0 27 27;" xml:space="preserve">
<style type="text/css">
	.st0{fill:#D4CEC2;}
</style>
<path class="st0" d="M26.5,7.1c-0.3-1.4-1.5-2.5-2.9-2.7c-3.3-0.4-6.7-0.4-10.1-0.4c-3.4,0-6.8,0-10.1,0.4C2,4.6,0.8,5.7,0.5,7.1
	C0,9.2,0,11.4,0,13.5s0,4.3,0.5,6.4c0.3,1.4,1.5,2.5,2.9,2.7c3.3,0.4,6.7,0.4,10.1,0.4c3.4,0,6.8,0,10.1-0.4
	c1.4-0.2,2.6-1.2,2.9-2.7c0.5-2,0.5-4.3,0.5-6.4C27,11.4,27,9.2,26.5,7.1z M10,17.7c0-3,0-5.9,0-8.9c2.9,1.5,5.7,3,8.6,4.5
	C15.7,14.7,12.9,16.2,10,17.7z"/>
</svg>
